<?xml version="1.0" standalone="no"?>
<!DOCTYPE svg PUBLIC "-//W3C//DTD SVG 20010904//EN"
 "http://www.w3.org/TR/2001/REC-SVG-20010904/DTD/svg10.dtd">
<svg version="1.0" xmlns="http://www.w3.org/2000/svg"
 width="512.000000pt" height="512.000000pt" viewBox="0 0 512.000000 512.000000"
 preserveAspectRatio="xMidYMid meet">

<g transform="translate(0.000000,512.000000) scale(0.100000,-0.100000)"
fill="#000000" stroke="none">
<path d="M2423 4521 c-50 -112 -74 -159 -113 -220 l-41 -63 -562 4 c-309 2
-569 7 -577 11 -13 6 -15 -108 -15 -1000 l0 -1008 1570 0 1570 0 0 1008 c0
892 -2 1006 -15 1000 -8 -4 -386 -9 -838 -11 l-824 -3 40 58 c46 69 124 204
119 209 -1 2 -67 19 -146 37 l-143 35 -25 -57z m1557 -1271 l0 -770 -1295 0
-1295 0 0 770 0 770 1295 0 1295 0 0 -770z"/>
<path d="M3330 3919 c-214 -52 -726 -92 -1337 -105 -178 -4 -323 -9 -323 -12
0 -7 54 -112 78 -152 l21 -34 93 2 c51 2 112 5 136 8 23 4 42 4 42 1 0 -3 -36
-22 -80 -43 l-80 -37 63 -66 c59 -61 127 -151 127 -166 0 -4 -119 -6 -265 -3
l-265 4 0 -109 0 -109 33 6 c17 3 187 9 376 12 273 6 342 4 336 -6 -12 -20
-132 -94 -240 -147 -122 -61 -256 -112 -418 -159 -66 -19 -123 -36 -125 -39
-4 -4 146 -188 158 -193 3 -1 80 27 170 63 269 107 433 202 617 357 52 44 96
78 97 76 5 -8 -13 -475 -19 -490 -7 -17 3 -18 130 -18 l137 0 -6 28 c-12 52
-19 352 -8 352 46 0 505 -184 795 -319 49 -23 93 -41 97 -41 9 0 100 173 100
190 0 25 -665 279 -838 320 -122 29 -66 32 384 27 247 -4 464 -9 482 -13 l32
-6 0 108 0 109 -312 -3 c-301 -2 -312 -1 -288 15 81 58 290 248 290 264 0 10
-173 99 -194 99 -7 0 -22 -12 -32 -27 -38 -59 -83 -107 -172 -183 l-93 -79 88
-45 88 -45 -213 0 -212 -1 2 177 3 178 150 12 c153 12 627 69 679 81 28 7 23
11 -95 90 -69 45 -131 82 -139 81 -8 -1 -31 -5 -50 -10z m-790 -439 l0 -170
-197 0 -197 0 73 35 c66 32 72 37 60 53 -47 63 -118 143 -157 179 -25 23 -44
45 -41 47 5 5 279 22 397 25 l62 1 0 -170z"/>
<path d="M680 1925 l0 -147 38 6 c20 4 205 10 410 13 l373 5 -22 -53 c-12 -30
-27 -70 -34 -89 -20 -55 -126 -292 -141 -315 l-13 -20 1229 3 1229 3 -5 -38
c-38 -266 -71 -401 -111 -445 -66 -73 -258 -82 -733 -37 -113 11 -232 24 -265
29 -33 6 -70 10 -81 10 l-22 0 23 -73 c13 -40 27 -101 30 -134 l7 -60 62 -7
c213 -21 394 -30 636 -30 233 -1 286 2 345 17 147 37 233 95 280 188 38 73 63
184 106 467 22 144 44 284 49 310 4 26 8 48 7 48 -1 1 -76 -2 -167 -7 -147 -8
-2210 -1 -2210 7 0 2 20 49 45 104 25 55 45 105 45 110 0 13 2796 8 2848 -5
l32 -7 0 147 c0 135 -1 146 -17 141 -68 -21 -454 -26 -1978 -26 -1529 0 -1865
4 -1967 26 l-28 6 0 -147z"/>
</g>
</svg>
